<mxfile modified="2024-01-16T05:08:46.498Z" host="app.diagrams.net" agent="Mozilla/5.0 (Windows NT 10.0; Win64; x64) AppleWebKit/537.36 (KHTML, like Gecko) Chrome/120.0.0.0 Safari/537.36" etag="RZ1hyUfr3D2H5z2cA2Qk" version="22.1.18" type="github">
  <diagram id="Ht1M8jgEwFfnCIfOTk4-" name="Page-1">
    <mxGraphModel dx="3141" dy="738" grid="1" gridSize="10" guides="1" tooltips="1" connect="1" arrows="1" fold="1" page="1" pageScale="1" pageWidth="827" pageHeight="1169" math="0" shadow="0">
      <root>
        <mxCell id="0" />
        <mxCell id="1" parent="0" />
        <mxCell id="daIzgXXJox2IT4Dl1WvI-1" value="REGION" style="points=[[0,0],[0.25,0],[0.5,0],[0.75,0],[1,0],[1,0.25],[1,0.5],[1,0.75],[1,1],[0.75,1],[0.5,1],[0.25,1],[0,1],[0,0.75],[0,0.5],[0,0.25]];outlineConnect=0;gradientColor=none;html=1;whiteSpace=wrap;fontSize=12;fontStyle=0;container=1;pointerEvents=0;collapsible=0;recursiveResize=0;shape=mxgraph.aws4.group;grIcon=mxgraph.aws4.group_aws_cloud_alt;strokeColor=#232F3E;fillColor=none;verticalAlign=top;align=left;spacingLeft=30;fontColor=#232F3E;dashed=0;" vertex="1" parent="1">
          <mxGeometry x="-70" y="20" width="1390" height="720" as="geometry" />
        </mxCell>
        <mxCell id="daIzgXXJox2IT4Dl1WvI-26" value="" style="sketch=0;points=[[0,0,0],[0.25,0,0],[0.5,0,0],[0.75,0,0],[1,0,0],[0,1,0],[0.25,1,0],[0.5,1,0],[0.75,1,0],[1,1,0],[0,0.25,0],[0,0.5,0],[0,0.75,0],[1,0.25,0],[1,0.5,0],[1,0.75,0]];outlineConnect=0;fontColor=#232F3E;fillColor=#8C4FFF;strokeColor=#ffffff;dashed=0;verticalLabelPosition=bottom;verticalAlign=top;align=center;html=1;fontSize=12;fontStyle=0;aspect=fixed;shape=mxgraph.aws4.resourceIcon;resIcon=mxgraph.aws4.route_53;" vertex="1" parent="daIzgXXJox2IT4Dl1WvI-1">
          <mxGeometry x="20" y="160" width="30" height="30" as="geometry" />
        </mxCell>
        <mxCell id="daIzgXXJox2IT4Dl1WvI-25" value="" style="sketch=0;points=[[0,0,0],[0.25,0,0],[0.5,0,0],[0.75,0,0],[1,0,0],[0,1,0],[0.25,1,0],[0.5,1,0],[0.75,1,0],[1,1,0],[0,0.25,0],[0,0.5,0],[0,0.75,0],[1,0.25,0],[1,0.5,0],[1,0.75,0]];outlineConnect=0;fontColor=#232F3E;fillColor=#8C4FFF;strokeColor=#ffffff;dashed=0;verticalLabelPosition=bottom;verticalAlign=top;align=center;html=1;fontSize=12;fontStyle=0;aspect=fixed;shape=mxgraph.aws4.resourceIcon;resIcon=mxgraph.aws4.cloudfront;" vertex="1" parent="daIzgXXJox2IT4Dl1WvI-1">
          <mxGeometry x="20" y="260" width="30" height="30" as="geometry" />
        </mxCell>
        <mxCell id="daIzgXXJox2IT4Dl1WvI-61" style="edgeStyle=elbowEdgeStyle;rounded=0;orthogonalLoop=1;jettySize=auto;html=1;entryX=0.5;entryY=0;entryDx=0;entryDy=0;entryPerimeter=0;" edge="1" parent="daIzgXXJox2IT4Dl1WvI-1" source="daIzgXXJox2IT4Dl1WvI-26" target="daIzgXXJox2IT4Dl1WvI-25">
          <mxGeometry relative="1" as="geometry" />
        </mxCell>
        <mxCell id="daIzgXXJox2IT4Dl1WvI-62" value="CloudFront" style="text;html=1;strokeColor=none;fillColor=none;align=center;verticalAlign=middle;whiteSpace=wrap;rounded=0;" vertex="1" parent="daIzgXXJox2IT4Dl1WvI-1">
          <mxGeometry x="5" y="290" width="55" height="30" as="geometry" />
        </mxCell>
        <mxCell id="daIzgXXJox2IT4Dl1WvI-95" value="" style="sketch=0;outlineConnect=0;fontColor=#232F3E;gradientColor=none;fillColor=#DD344C;strokeColor=none;dashed=0;verticalLabelPosition=bottom;verticalAlign=top;align=center;html=1;fontSize=12;fontStyle=0;aspect=fixed;pointerEvents=1;shape=mxgraph.aws4.shield_shield_advanced;" vertex="1" parent="daIzgXXJox2IT4Dl1WvI-1">
          <mxGeometry x="10" y="132" width="25.13" height="28" as="geometry" />
        </mxCell>
        <mxCell id="daIzgXXJox2IT4Dl1WvI-98" value="" style="sketch=0;points=[[0,0,0],[0.25,0,0],[0.5,0,0],[0.75,0,0],[1,0,0],[0,1,0],[0.25,1,0],[0.5,1,0],[0.75,1,0],[1,1,0],[0,0.25,0],[0,0.5,0],[0,0.75,0],[1,0.25,0],[1,0.5,0],[1,0.75,0]];outlineConnect=0;fontColor=#232F3E;fillColor=#DD344C;strokeColor=#ffffff;dashed=0;verticalLabelPosition=bottom;verticalAlign=top;align=center;html=1;fontSize=12;fontStyle=0;aspect=fixed;shape=mxgraph.aws4.resourceIcon;resIcon=mxgraph.aws4.waf;" vertex="1" parent="daIzgXXJox2IT4Dl1WvI-1">
          <mxGeometry x="38.279999999999994" y="230" width="23.43" height="23.43" as="geometry" />
        </mxCell>
        <mxCell id="daIzgXXJox2IT4Dl1WvI-99" value="WAF" style="text;html=1;strokeColor=none;fillColor=none;align=center;verticalAlign=middle;whiteSpace=wrap;rounded=0;" vertex="1" parent="daIzgXXJox2IT4Dl1WvI-1">
          <mxGeometry x="38.279999999999994" y="210" width="25.15" height="30" as="geometry" />
        </mxCell>
        <mxCell id="daIzgXXJox2IT4Dl1WvI-96" value="ShieldAdv" style="text;html=1;strokeColor=none;fillColor=none;align=center;verticalAlign=middle;whiteSpace=wrap;rounded=0;" vertex="1" parent="daIzgXXJox2IT4Dl1WvI-1">
          <mxGeometry x="25" y="110" width="20" height="30" as="geometry" />
        </mxCell>
        <mxCell id="daIzgXXJox2IT4Dl1WvI-282" style="edgeStyle=elbowEdgeStyle;rounded=0;orthogonalLoop=1;jettySize=auto;html=1;" edge="1" parent="1" source="daIzgXXJox2IT4Dl1WvI-47">
          <mxGeometry relative="1" as="geometry">
            <mxPoint x="-190" y="280" as="targetPoint" />
          </mxGeometry>
        </mxCell>
        <mxCell id="daIzgXXJox2IT4Dl1WvI-47" value="users" style="sketch=0;outlineConnect=0;gradientColor=none;fontColor=#545B64;strokeColor=none;fillColor=#879196;dashed=0;verticalLabelPosition=bottom;verticalAlign=top;align=center;html=1;fontSize=12;fontStyle=0;aspect=fixed;shape=mxgraph.aws4.illustration_users;pointerEvents=1" vertex="1" parent="1">
          <mxGeometry x="-210" y="420" width="40" height="40" as="geometry" />
        </mxCell>
        <mxCell id="daIzgXXJox2IT4Dl1WvI-48" value="" style="sketch=0;outlineConnect=0;fontColor=#232F3E;gradientColor=none;fillColor=#232F3D;strokeColor=none;dashed=0;verticalLabelPosition=bottom;verticalAlign=top;align=center;html=1;fontSize=12;fontStyle=0;aspect=fixed;pointerEvents=1;shape=mxgraph.aws4.internet_alt1;" vertex="1" parent="1">
          <mxGeometry x="-199" y="30" width="78" height="48" as="geometry" />
        </mxCell>
        <mxCell id="daIzgXXJox2IT4Dl1WvI-103" style="edgeStyle=elbowEdgeStyle;rounded=0;orthogonalLoop=1;jettySize=auto;html=1;" edge="1" parent="1" source="daIzgXXJox2IT4Dl1WvI-49" target="daIzgXXJox2IT4Dl1WvI-48">
          <mxGeometry relative="1" as="geometry">
            <Array as="points">
              <mxPoint x="10" y="80" />
            </Array>
          </mxGeometry>
        </mxCell>
        <mxCell id="daIzgXXJox2IT4Dl1WvI-104" value="Internet" style="text;html=1;strokeColor=none;fillColor=none;align=center;verticalAlign=middle;whiteSpace=wrap;rounded=0;" vertex="1" parent="1">
          <mxGeometry x="-170" y="80" width="20" height="30" as="geometry" />
        </mxCell>
        <mxCell id="daIzgXXJox2IT4Dl1WvI-46" value="VPC&amp;nbsp;" style="points=[[0,0],[0.25,0],[0.5,0],[0.75,0],[1,0],[1,0.25],[1,0.5],[1,0.75],[1,1],[0.75,1],[0.5,1],[0.25,1],[0,1],[0,0.75],[0,0.5],[0,0.25]];outlineConnect=0;gradientColor=none;html=1;whiteSpace=wrap;fontSize=12;fontStyle=0;container=1;pointerEvents=0;collapsible=0;recursiveResize=0;shape=mxgraph.aws4.group;grIcon=mxgraph.aws4.group_vpc2;strokeColor=#8C4FFF;fillColor=none;verticalAlign=top;align=left;spacingLeft=30;fontColor=#AAB7B8;dashed=0;" vertex="1" parent="1">
          <mxGeometry x="20" y="60" width="1221" height="670" as="geometry" />
        </mxCell>
        <mxCell id="daIzgXXJox2IT4Dl1WvI-8" value="Private subnet" style="points=[[0,0],[0.25,0],[0.5,0],[0.75,0],[1,0],[1,0.25],[1,0.5],[1,0.75],[1,1],[0.75,1],[0.5,1],[0.25,1],[0,1],[0,0.75],[0,0.5],[0,0.25]];outlineConnect=0;gradientColor=none;html=1;whiteSpace=wrap;fontSize=12;fontStyle=0;container=1;pointerEvents=0;collapsible=0;recursiveResize=0;shape=mxgraph.aws4.group;grIcon=mxgraph.aws4.group_security_group;grStroke=0;strokeColor=#00A4A6;fillColor=#E6F6F7;verticalAlign=top;align=left;spacingLeft=30;fontColor=#147EBA;dashed=0;" vertex="1" parent="daIzgXXJox2IT4Dl1WvI-46">
          <mxGeometry x="40" y="560" width="300" height="90" as="geometry" />
        </mxCell>
        <mxCell id="daIzgXXJox2IT4Dl1WvI-94" value="" style="sketch=0;points=[[0,0,0],[0.25,0,0],[0.5,0,0],[0.75,0,0],[1,0,0],[0,1,0],[0.25,1,0],[0.5,1,0],[0.75,1,0],[1,1,0],[0,0.25,0],[0,0.5,0],[0,0.75,0],[1,0.25,0],[1,0.5,0],[1,0.75,0]];outlineConnect=0;fontColor=#232F3E;fillColor=#C925D1;strokeColor=#ffffff;dashed=0;verticalLabelPosition=bottom;verticalAlign=top;align=center;html=1;fontSize=12;fontStyle=0;aspect=fixed;shape=mxgraph.aws4.resourceIcon;resIcon=mxgraph.aws4.database;" vertex="1" parent="daIzgXXJox2IT4Dl1WvI-8">
          <mxGeometry x="110" y="6" width="74" height="74" as="geometry" />
        </mxCell>
        <mxCell id="daIzgXXJox2IT4Dl1WvI-266" value="NACL" style="shape=ext;double=1;whiteSpace=wrap;html=1;aspect=fixed;" vertex="1" parent="daIzgXXJox2IT4Dl1WvI-8">
          <mxGeometry x="218" width="31" height="31" as="geometry" />
        </mxCell>
        <UserObject label="Aurora" treeRoot="1" id="daIzgXXJox2IT4Dl1WvI-268">
          <mxCell style="whiteSpace=wrap;html=1;align=center;treeFolding=1;treeMoving=1;newEdgeStyle={&quot;edgeStyle&quot;:&quot;elbowEdgeStyle&quot;,&quot;startArrow&quot;:&quot;none&quot;,&quot;endArrow&quot;:&quot;none&quot;};" vertex="1" collapsed="1" parent="daIzgXXJox2IT4Dl1WvI-8">
            <mxGeometry x="102" y="55" width="90" height="25" as="geometry" />
          </mxCell>
        </UserObject>
        <UserObject label="Security Group" treeRoot="1" id="daIzgXXJox2IT4Dl1WvI-269">
          <mxCell style="whiteSpace=wrap;html=1;align=center;treeFolding=1;treeMoving=1;newEdgeStyle={&quot;edgeStyle&quot;:&quot;elbowEdgeStyle&quot;,&quot;startArrow&quot;:&quot;none&quot;,&quot;endArrow&quot;:&quot;none&quot;};" vertex="1" collapsed="1" parent="daIzgXXJox2IT4Dl1WvI-8">
            <mxGeometry x="200" y="40" width="90" height="40" as="geometry" />
          </mxCell>
        </UserObject>
        <mxCell id="daIzgXXJox2IT4Dl1WvI-270" style="edgeStyle=elbowEdgeStyle;rounded=0;orthogonalLoop=1;jettySize=auto;html=1;startArrow=none;endArrow=none;exitX=0.75;exitY=0;exitDx=0;exitDy=0;entryX=0.6;entryY=0.24;entryDx=0;entryDy=0;entryPerimeter=0;" edge="1" parent="daIzgXXJox2IT4Dl1WvI-8" source="daIzgXXJox2IT4Dl1WvI-268" target="daIzgXXJox2IT4Dl1WvI-268">
          <mxGeometry relative="1" as="geometry" />
        </mxCell>
        <mxCell id="daIzgXXJox2IT4Dl1WvI-207" style="edgeStyle=elbowEdgeStyle;rounded=0;orthogonalLoop=1;jettySize=auto;html=1;" edge="1" parent="daIzgXXJox2IT4Dl1WvI-46" source="daIzgXXJox2IT4Dl1WvI-49" target="daIzgXXJox2IT4Dl1WvI-46">
          <mxGeometry relative="1" as="geometry" />
        </mxCell>
        <mxCell id="daIzgXXJox2IT4Dl1WvI-49" value="" style="sketch=0;outlineConnect=0;fontColor=#232F3E;gradientColor=none;fillColor=#8C4FFF;strokeColor=none;dashed=0;verticalLabelPosition=bottom;verticalAlign=top;align=center;html=1;fontSize=12;fontStyle=0;aspect=fixed;pointerEvents=1;shape=mxgraph.aws4.internet_gateway;" vertex="1" parent="daIzgXXJox2IT4Dl1WvI-46">
          <mxGeometry x="-20" y="40" width="30" height="30" as="geometry" />
        </mxCell>
        <mxCell id="daIzgXXJox2IT4Dl1WvI-9" value="Public subnet" style="points=[[0,0],[0.25,0],[0.5,0],[0.75,0],[1,0],[1,0.25],[1,0.5],[1,0.75],[1,1],[0.75,1],[0.5,1],[0.25,1],[0,1],[0,0.75],[0,0.5],[0,0.25]];outlineConnect=0;gradientColor=none;html=1;whiteSpace=wrap;fontSize=12;fontStyle=0;container=1;pointerEvents=0;collapsible=0;recursiveResize=0;shape=mxgraph.aws4.group;grIcon=mxgraph.aws4.group_security_group;grStroke=0;strokeColor=#7AA116;fillColor=#F2F6E8;verticalAlign=top;align=left;spacingLeft=30;fontColor=#248814;dashed=0;" vertex="1" parent="daIzgXXJox2IT4Dl1WvI-46">
          <mxGeometry x="380" y="40" width="210" height="80" as="geometry" />
        </mxCell>
        <UserObject label="Load Balancer" treeRoot="1" id="daIzgXXJox2IT4Dl1WvI-200">
          <mxCell style="whiteSpace=wrap;html=1;align=center;treeFolding=1;treeMoving=1;newEdgeStyle={&quot;edgeStyle&quot;:&quot;elbowEdgeStyle&quot;,&quot;startArrow&quot;:&quot;none&quot;,&quot;endArrow&quot;:&quot;none&quot;};" vertex="1" parent="daIzgXXJox2IT4Dl1WvI-9">
            <mxGeometry x="20" y="30" width="90" height="40" as="geometry" />
          </mxCell>
        </UserObject>
        <UserObject label="Security Group" treeRoot="1" id="daIzgXXJox2IT4Dl1WvI-201">
          <mxCell style="whiteSpace=wrap;html=1;align=center;treeFolding=1;treeMoving=1;newEdgeStyle={&quot;edgeStyle&quot;:&quot;elbowEdgeStyle&quot;,&quot;startArrow&quot;:&quot;none&quot;,&quot;endArrow&quot;:&quot;none&quot;};" vertex="1" parent="daIzgXXJox2IT4Dl1WvI-9">
            <mxGeometry x="120" y="30" width="90" height="40" as="geometry" />
          </mxCell>
        </UserObject>
        <mxCell id="daIzgXXJox2IT4Dl1WvI-290" value="NACL" style="shape=ext;double=1;whiteSpace=wrap;html=1;aspect=fixed;" vertex="1" parent="daIzgXXJox2IT4Dl1WvI-9">
          <mxGeometry x="110" width="31" height="31" as="geometry" />
        </mxCell>
        <mxCell id="daIzgXXJox2IT4Dl1WvI-74" value="Private subnet" style="points=[[0,0],[0.25,0],[0.5,0],[0.75,0],[1,0],[1,0.25],[1,0.5],[1,0.75],[1,1],[0.75,1],[0.5,1],[0.25,1],[0,1],[0,0.75],[0,0.5],[0,0.25]];outlineConnect=0;gradientColor=none;html=1;whiteSpace=wrap;fontSize=12;fontStyle=0;container=1;pointerEvents=0;collapsible=0;recursiveResize=0;shape=mxgraph.aws4.group;grIcon=mxgraph.aws4.group_security_group;grStroke=0;strokeColor=#00A4A6;fillColor=#E6F6F7;verticalAlign=top;align=left;spacingLeft=30;fontColor=#147EBA;dashed=0;" vertex="1" parent="daIzgXXJox2IT4Dl1WvI-46">
          <mxGeometry x="40" y="420" width="300" height="90" as="geometry" />
        </mxCell>
        <mxCell id="daIzgXXJox2IT4Dl1WvI-254" value="NACL" style="shape=ext;double=1;whiteSpace=wrap;html=1;aspect=fixed;" vertex="1" parent="daIzgXXJox2IT4Dl1WvI-74">
          <mxGeometry x="164.5" width="31" height="31" as="geometry" />
        </mxCell>
        <mxCell id="daIzgXXJox2IT4Dl1WvI-259" value="App Server 1" style="points=[[0,0],[0.25,0],[0.5,0],[0.75,0],[1,0],[1,0.25],[1,0.5],[1,0.75],[1,1],[0.75,1],[0.5,1],[0.25,1],[0,1],[0,0.75],[0,0.5],[0,0.25]];outlineConnect=0;gradientColor=none;html=1;whiteSpace=wrap;fontSize=12;fontStyle=0;container=1;pointerEvents=0;collapsible=0;recursiveResize=0;shape=mxgraph.aws4.group;grIcon=mxgraph.aws4.group_ec2_instance_contents;strokeColor=#D86613;fillColor=none;verticalAlign=top;align=left;spacingLeft=30;fontColor=#D86613;dashed=0;" vertex="1" parent="daIzgXXJox2IT4Dl1WvI-74">
          <mxGeometry x="10" y="31" width="130" height="50" as="geometry" />
        </mxCell>
        <UserObject label="Security Group" treeRoot="1" id="daIzgXXJox2IT4Dl1WvI-260">
          <mxCell style="whiteSpace=wrap;html=1;align=center;treeFolding=1;treeMoving=1;newEdgeStyle={&quot;edgeStyle&quot;:&quot;elbowEdgeStyle&quot;,&quot;startArrow&quot;:&quot;none&quot;,&quot;endArrow&quot;:&quot;none&quot;};" vertex="1" collapsed="1" parent="daIzgXXJox2IT4Dl1WvI-74">
            <mxGeometry x="203" y="36" width="90" height="40" as="geometry" />
          </mxCell>
        </UserObject>
        <mxCell id="daIzgXXJox2IT4Dl1WvI-70" value="Private subnet" style="points=[[0,0],[0.25,0],[0.5,0],[0.75,0],[1,0],[1,0.25],[1,0.5],[1,0.75],[1,1],[0.75,1],[0.5,1],[0.25,1],[0,1],[0,0.75],[0,0.5],[0,0.25]];outlineConnect=0;gradientColor=none;html=1;whiteSpace=wrap;fontSize=12;fontStyle=0;container=1;pointerEvents=0;collapsible=0;recursiveResize=0;shape=mxgraph.aws4.group;grIcon=mxgraph.aws4.group_security_group;grStroke=0;strokeColor=#00A4A6;fillColor=#E6F6F7;verticalAlign=top;align=left;spacingLeft=30;fontColor=#147EBA;dashed=0;" vertex="1" parent="daIzgXXJox2IT4Dl1WvI-46">
          <mxGeometry x="40" y="170" width="290" height="110" as="geometry" />
        </mxCell>
        <mxCell id="daIzgXXJox2IT4Dl1WvI-185" value="Web Server 1" style="points=[[0,0],[0.25,0],[0.5,0],[0.75,0],[1,0],[1,0.25],[1,0.5],[1,0.75],[1,1],[0.75,1],[0.5,1],[0.25,1],[0,1],[0,0.75],[0,0.5],[0,0.25]];outlineConnect=0;gradientColor=none;html=1;whiteSpace=wrap;fontSize=12;fontStyle=0;container=1;pointerEvents=0;collapsible=0;recursiveResize=0;shape=mxgraph.aws4.group;grIcon=mxgraph.aws4.group_ec2_instance_contents;strokeColor=#D86613;fillColor=none;verticalAlign=top;align=left;spacingLeft=30;fontColor=#D86613;dashed=0;" vertex="1" parent="daIzgXXJox2IT4Dl1WvI-70">
          <mxGeometry x="10" y="37" width="130" height="50" as="geometry" />
        </mxCell>
        <UserObject label="Security Group" treeRoot="1" id="daIzgXXJox2IT4Dl1WvI-213">
          <mxCell style="whiteSpace=wrap;html=1;align=center;treeFolding=1;treeMoving=1;newEdgeStyle={&quot;edgeStyle&quot;:&quot;elbowEdgeStyle&quot;,&quot;startArrow&quot;:&quot;none&quot;,&quot;endArrow&quot;:&quot;none&quot;};" vertex="1" parent="daIzgXXJox2IT4Dl1WvI-70">
            <mxGeometry x="159" y="43" width="90" height="40" as="geometry" />
          </mxCell>
        </UserObject>
        <mxCell id="daIzgXXJox2IT4Dl1WvI-255" value="NACL" style="shape=ext;double=1;whiteSpace=wrap;html=1;aspect=fixed;" vertex="1" parent="daIzgXXJox2IT4Dl1WvI-70">
          <mxGeometry x="140" width="31" height="31" as="geometry" />
        </mxCell>
        <UserObject label="Auto Scaling" treeRoot="1" id="daIzgXXJox2IT4Dl1WvI-199">
          <mxCell style="whiteSpace=wrap;html=1;align=center;treeFolding=1;treeMoving=1;newEdgeStyle={&quot;edgeStyle&quot;:&quot;elbowEdgeStyle&quot;,&quot;startArrow&quot;:&quot;none&quot;,&quot;endArrow&quot;:&quot;none&quot;};" vertex="1" collapsed="1" parent="daIzgXXJox2IT4Dl1WvI-46">
            <mxGeometry x="470" y="205" width="50" height="40" as="geometry" />
          </mxCell>
        </UserObject>
        <mxCell id="daIzgXXJox2IT4Dl1WvI-209" value="" style="edgeStyle=elbowEdgeStyle;elbow=vertical;endArrow=classic;html=1;curved=0;rounded=0;endSize=8;startSize=8;exitX=0.433;exitY=-0.1;exitDx=0;exitDy=0;exitPerimeter=0;" edge="1" parent="daIzgXXJox2IT4Dl1WvI-46" source="daIzgXXJox2IT4Dl1WvI-201">
          <mxGeometry width="50" height="50" relative="1" as="geometry">
            <mxPoint x="484" y="370" as="sourcePoint" />
            <mxPoint x="10" y="50.00034160783423" as="targetPoint" />
            <Array as="points">
              <mxPoint x="280" y="30" />
            </Array>
          </mxGeometry>
        </mxCell>
        <mxCell id="daIzgXXJox2IT4Dl1WvI-227" value="Private subnet" style="points=[[0,0],[0.25,0],[0.5,0],[0.75,0],[1,0],[1,0.25],[1,0.5],[1,0.75],[1,1],[0.75,1],[0.5,1],[0.25,1],[0,1],[0,0.75],[0,0.5],[0,0.25]];outlineConnect=0;gradientColor=none;html=1;whiteSpace=wrap;fontSize=12;fontStyle=0;container=1;pointerEvents=0;collapsible=0;recursiveResize=0;shape=mxgraph.aws4.group;grIcon=mxgraph.aws4.group_security_group;grStroke=0;strokeColor=#00A4A6;fillColor=#E6F6F7;verticalAlign=top;align=left;spacingLeft=30;fontColor=#147EBA;dashed=0;" vertex="1" parent="daIzgXXJox2IT4Dl1WvI-46">
          <mxGeometry x="679" y="550" width="340" height="90" as="geometry" />
        </mxCell>
        <UserObject label="Security Group" treeRoot="1" id="daIzgXXJox2IT4Dl1WvI-262">
          <mxCell style="whiteSpace=wrap;html=1;align=center;treeFolding=1;treeMoving=1;newEdgeStyle={&quot;edgeStyle&quot;:&quot;elbowEdgeStyle&quot;,&quot;startArrow&quot;:&quot;none&quot;,&quot;endArrow&quot;:&quot;none&quot;};" vertex="1" collapsed="1" parent="daIzgXXJox2IT4Dl1WvI-227">
            <mxGeometry x="240" y="8" width="90" height="40" as="geometry" />
          </mxCell>
        </UserObject>
        <mxCell id="daIzgXXJox2IT4Dl1WvI-267" value="NACL" style="shape=ext;double=1;whiteSpace=wrap;html=1;aspect=fixed;" vertex="1" parent="daIzgXXJox2IT4Dl1WvI-227">
          <mxGeometry y="40" width="31" height="31" as="geometry" />
        </mxCell>
        <mxCell id="daIzgXXJox2IT4Dl1WvI-231" value="Private subnet" style="points=[[0,0],[0.25,0],[0.5,0],[0.75,0],[1,0],[1,0.25],[1,0.5],[1,0.75],[1,1],[0.75,1],[0.5,1],[0.25,1],[0,1],[0,0.75],[0,0.5],[0,0.25]];outlineConnect=0;gradientColor=none;html=1;whiteSpace=wrap;fontSize=12;fontStyle=0;container=1;pointerEvents=0;collapsible=0;recursiveResize=0;shape=mxgraph.aws4.group;grIcon=mxgraph.aws4.group_security_group;grStroke=0;strokeColor=#00A4A6;fillColor=#E6F6F7;verticalAlign=top;align=left;spacingLeft=30;fontColor=#147EBA;dashed=0;" vertex="1" parent="daIzgXXJox2IT4Dl1WvI-46">
          <mxGeometry x="679" y="410" width="360" height="90" as="geometry" />
        </mxCell>
        <mxCell id="daIzgXXJox2IT4Dl1WvI-257" value="NACL" style="shape=ext;double=1;whiteSpace=wrap;html=1;aspect=fixed;" vertex="1" parent="daIzgXXJox2IT4Dl1WvI-231">
          <mxGeometry x="129.5" y="-1" width="31" height="31" as="geometry" />
        </mxCell>
        <mxCell id="daIzgXXJox2IT4Dl1WvI-258" value="App Server 2" style="points=[[0,0],[0.25,0],[0.5,0],[0.75,0],[1,0],[1,0.25],[1,0.5],[1,0.75],[1,1],[0.75,1],[0.5,1],[0.25,1],[0,1],[0,0.75],[0,0.5],[0,0.25]];outlineConnect=0;gradientColor=none;html=1;whiteSpace=wrap;fontSize=12;fontStyle=0;container=1;pointerEvents=0;collapsible=0;recursiveResize=0;shape=mxgraph.aws4.group;grIcon=mxgraph.aws4.group_ec2_instance_contents;strokeColor=#D86613;fillColor=none;verticalAlign=top;align=left;spacingLeft=30;fontColor=#D86613;dashed=0;" vertex="1" parent="daIzgXXJox2IT4Dl1WvI-231">
          <mxGeometry x="10" y="30" width="130" height="50" as="geometry" />
        </mxCell>
        <UserObject label="Security Group" treeRoot="1" id="daIzgXXJox2IT4Dl1WvI-261">
          <mxCell style="whiteSpace=wrap;html=1;align=center;treeFolding=1;treeMoving=1;newEdgeStyle={&quot;edgeStyle&quot;:&quot;elbowEdgeStyle&quot;,&quot;startArrow&quot;:&quot;none&quot;,&quot;endArrow&quot;:&quot;none&quot;};" vertex="1" collapsed="1" parent="daIzgXXJox2IT4Dl1WvI-231">
            <mxGeometry x="180" y="35" width="90" height="40" as="geometry" />
          </mxCell>
        </UserObject>
        <mxCell id="daIzgXXJox2IT4Dl1WvI-235" value="Private subnet" style="points=[[0,0],[0.25,0],[0.5,0],[0.75,0],[1,0],[1,0.25],[1,0.5],[1,0.75],[1,1],[0.75,1],[0.5,1],[0.25,1],[0,1],[0,0.75],[0,0.5],[0,0.25]];outlineConnect=0;gradientColor=none;html=1;whiteSpace=wrap;fontSize=12;fontStyle=0;container=1;pointerEvents=0;collapsible=0;recursiveResize=0;shape=mxgraph.aws4.group;grIcon=mxgraph.aws4.group_security_group;grStroke=0;strokeColor=#00A4A6;fillColor=#E6F6F7;verticalAlign=top;align=left;spacingLeft=30;fontColor=#147EBA;dashed=0;" vertex="1" parent="daIzgXXJox2IT4Dl1WvI-46">
          <mxGeometry x="679" y="160" width="290" height="110" as="geometry" />
        </mxCell>
        <mxCell id="daIzgXXJox2IT4Dl1WvI-236" value="Web Server 2" style="points=[[0,0],[0.25,0],[0.5,0],[0.75,0],[1,0],[1,0.25],[1,0.5],[1,0.75],[1,1],[0.75,1],[0.5,1],[0.25,1],[0,1],[0,0.75],[0,0.5],[0,0.25]];outlineConnect=0;gradientColor=none;html=1;whiteSpace=wrap;fontSize=12;fontStyle=0;container=1;pointerEvents=0;collapsible=0;recursiveResize=0;shape=mxgraph.aws4.group;grIcon=mxgraph.aws4.group_ec2_instance_contents;strokeColor=#D86613;fillColor=none;verticalAlign=top;align=left;spacingLeft=30;fontColor=#D86613;dashed=0;" vertex="1" parent="daIzgXXJox2IT4Dl1WvI-235">
          <mxGeometry x="10" y="37" width="130" height="50" as="geometry" />
        </mxCell>
        <UserObject label="Security Group" treeRoot="1" id="daIzgXXJox2IT4Dl1WvI-237">
          <mxCell style="whiteSpace=wrap;html=1;align=center;treeFolding=1;treeMoving=1;newEdgeStyle={&quot;edgeStyle&quot;:&quot;elbowEdgeStyle&quot;,&quot;startArrow&quot;:&quot;none&quot;,&quot;endArrow&quot;:&quot;none&quot;};" vertex="1" parent="daIzgXXJox2IT4Dl1WvI-235">
            <mxGeometry x="159" y="43" width="90" height="40" as="geometry" />
          </mxCell>
        </UserObject>
        <mxCell id="daIzgXXJox2IT4Dl1WvI-256" value="NACL" style="shape=ext;double=1;whiteSpace=wrap;html=1;aspect=fixed;" vertex="1" parent="daIzgXXJox2IT4Dl1WvI-235">
          <mxGeometry x="150" width="31" height="31" as="geometry" />
        </mxCell>
        <mxCell id="daIzgXXJox2IT4Dl1WvI-246" value="" style="edgeStyle=elbowEdgeStyle;elbow=vertical;endArrow=classic;html=1;curved=0;rounded=0;endSize=8;startSize=8;exitX=-0.12;exitY=0.825;exitDx=0;exitDy=0;exitPerimeter=0;" edge="1" parent="daIzgXXJox2IT4Dl1WvI-46" source="daIzgXXJox2IT4Dl1WvI-199" target="daIzgXXJox2IT4Dl1WvI-70">
          <mxGeometry width="50" height="50" relative="1" as="geometry">
            <mxPoint x="469" y="360" as="sourcePoint" />
            <mxPoint x="519" y="310" as="targetPoint" />
          </mxGeometry>
        </mxCell>
        <mxCell id="daIzgXXJox2IT4Dl1WvI-247" value="" style="edgeStyle=elbowEdgeStyle;elbow=vertical;endArrow=classic;html=1;curved=0;rounded=0;endSize=8;startSize=8;exitX=1;exitY=0.75;exitDx=0;exitDy=0;" edge="1" parent="daIzgXXJox2IT4Dl1WvI-46" source="daIzgXXJox2IT4Dl1WvI-199" target="daIzgXXJox2IT4Dl1WvI-235">
          <mxGeometry width="50" height="50" relative="1" as="geometry">
            <mxPoint x="517" y="270" as="sourcePoint" />
            <mxPoint x="413" y="270" as="targetPoint" />
          </mxGeometry>
        </mxCell>
        <mxCell id="daIzgXXJox2IT4Dl1WvI-251" value="Private subnet" style="points=[[0,0],[0.25,0],[0.5,0],[0.75,0],[1,0],[1,0.25],[1,0.5],[1,0.75],[1,1],[0.75,1],[0.5,1],[0.25,1],[0,1],[0,0.75],[0,0.5],[0,0.25]];outlineConnect=0;gradientColor=none;html=1;whiteSpace=wrap;fontSize=12;fontStyle=0;container=1;pointerEvents=0;collapsible=0;recursiveResize=0;shape=mxgraph.aws4.group;grIcon=mxgraph.aws4.group_security_group;grStroke=0;strokeColor=#00A4A6;fillColor=#E6F6F7;verticalAlign=top;align=left;spacingLeft=30;fontColor=#147EBA;dashed=0;" vertex="1" parent="daIzgXXJox2IT4Dl1WvI-46">
          <mxGeometry x="380" y="290" width="230" height="100" as="geometry" />
        </mxCell>
        <UserObject label="Security Group" treeRoot="1" id="daIzgXXJox2IT4Dl1WvI-250">
          <mxCell style="whiteSpace=wrap;html=1;align=center;treeFolding=1;treeMoving=1;newEdgeStyle={&quot;edgeStyle&quot;:&quot;elbowEdgeStyle&quot;,&quot;startArrow&quot;:&quot;none&quot;,&quot;endArrow&quot;:&quot;none&quot;};" vertex="1" collapsed="1" parent="daIzgXXJox2IT4Dl1WvI-251">
            <mxGeometry x="140" y="30" width="90" height="40" as="geometry" />
          </mxCell>
        </UserObject>
        <UserObject label="Load Balancer" treeRoot="1" id="daIzgXXJox2IT4Dl1WvI-249">
          <mxCell style="whiteSpace=wrap;html=1;align=center;treeFolding=1;treeMoving=1;newEdgeStyle={&quot;edgeStyle&quot;:&quot;elbowEdgeStyle&quot;,&quot;startArrow&quot;:&quot;none&quot;,&quot;endArrow&quot;:&quot;none&quot;};" vertex="1" parent="daIzgXXJox2IT4Dl1WvI-251">
            <mxGeometry x="40" y="30" width="90" height="40" as="geometry" />
          </mxCell>
        </UserObject>
        <mxCell id="daIzgXXJox2IT4Dl1WvI-265" value="NACL" style="shape=ext;double=1;whiteSpace=wrap;html=1;aspect=fixed;" vertex="1" parent="daIzgXXJox2IT4Dl1WvI-251">
          <mxGeometry x="130" y="-1" width="31" height="31" as="geometry" />
        </mxCell>
        <mxCell id="daIzgXXJox2IT4Dl1WvI-271" value="" style="edgeStyle=elbowEdgeStyle;rounded=0;orthogonalLoop=1;jettySize=auto;html=1;" edge="1" parent="daIzgXXJox2IT4Dl1WvI-46" source="daIzgXXJox2IT4Dl1WvI-259">
          <mxGeometry relative="1" as="geometry">
            <mxPoint x="160" y="560" as="targetPoint" />
          </mxGeometry>
        </mxCell>
        <UserObject label="Auto Scaling" treeRoot="1" id="daIzgXXJox2IT4Dl1WvI-272">
          <mxCell style="whiteSpace=wrap;html=1;align=center;treeFolding=1;treeMoving=1;newEdgeStyle={&quot;edgeStyle&quot;:&quot;elbowEdgeStyle&quot;,&quot;startArrow&quot;:&quot;none&quot;,&quot;endArrow&quot;:&quot;none&quot;};" vertex="1" collapsed="1" parent="daIzgXXJox2IT4Dl1WvI-46">
            <mxGeometry x="480" y="430" width="50" height="40" as="geometry" />
          </mxCell>
        </UserObject>
        <mxCell id="daIzgXXJox2IT4Dl1WvI-273" value="" style="edgeStyle=elbowEdgeStyle;elbow=vertical;endArrow=classic;html=1;curved=0;rounded=0;endSize=8;startSize=8;exitX=-0.12;exitY=0.825;exitDx=0;exitDy=0;exitPerimeter=0;" edge="1" parent="daIzgXXJox2IT4Dl1WvI-46" source="daIzgXXJox2IT4Dl1WvI-272">
          <mxGeometry width="50" height="50" relative="1" as="geometry">
            <mxPoint x="479" y="585" as="sourcePoint" />
            <mxPoint x="340" y="463" as="targetPoint" />
          </mxGeometry>
        </mxCell>
        <mxCell id="daIzgXXJox2IT4Dl1WvI-274" value="" style="edgeStyle=elbowEdgeStyle;elbow=vertical;endArrow=classic;html=1;curved=0;rounded=0;endSize=8;startSize=8;exitX=1;exitY=0.75;exitDx=0;exitDy=0;" edge="1" parent="daIzgXXJox2IT4Dl1WvI-46" source="daIzgXXJox2IT4Dl1WvI-272">
          <mxGeometry width="50" height="50" relative="1" as="geometry">
            <mxPoint x="527" y="495" as="sourcePoint" />
            <mxPoint x="689" y="460" as="targetPoint" />
          </mxGeometry>
        </mxCell>
        <mxCell id="daIzgXXJox2IT4Dl1WvI-275" style="edgeStyle=elbowEdgeStyle;rounded=0;orthogonalLoop=1;jettySize=auto;html=1;" edge="1" parent="daIzgXXJox2IT4Dl1WvI-46" source="daIzgXXJox2IT4Dl1WvI-258" target="daIzgXXJox2IT4Dl1WvI-227">
          <mxGeometry relative="1" as="geometry" />
        </mxCell>
        <mxCell id="daIzgXXJox2IT4Dl1WvI-276" value="eu-east-1a" style="points=[[0,0],[0.25,0],[0.5,0],[0.75,0],[1,0],[1,0.25],[1,0.5],[1,0.75],[1,1],[0.75,1],[0.5,1],[0.25,1],[0,1],[0,0.75],[0,0.5],[0,0.25]];outlineConnect=0;gradientColor=none;html=1;whiteSpace=wrap;fontSize=12;fontStyle=0;container=1;pointerEvents=0;collapsible=0;recursiveResize=0;shape=mxgraph.aws4.group;grIcon=mxgraph.aws4.group_region;strokeColor=#00A4A6;fillColor=none;verticalAlign=top;align=left;spacingLeft=30;fontColor=#147EBA;dashed=1;" vertex="1" parent="daIzgXXJox2IT4Dl1WvI-46">
          <mxGeometry x="30" y="100" width="330" height="560" as="geometry" />
        </mxCell>
        <mxCell id="daIzgXXJox2IT4Dl1WvI-277" value="eu-east-2a" style="points=[[0,0],[0.25,0],[0.5,0],[0.75,0],[1,0],[1,0.25],[1,0.5],[1,0.75],[1,1],[0.75,1],[0.5,1],[0.25,1],[0,1],[0,0.75],[0,0.5],[0,0.25]];outlineConnect=0;gradientColor=none;html=1;whiteSpace=wrap;fontSize=12;fontStyle=0;container=1;pointerEvents=0;collapsible=0;recursiveResize=0;shape=mxgraph.aws4.group;grIcon=mxgraph.aws4.group_region;strokeColor=#00A4A6;fillColor=none;verticalAlign=top;align=left;spacingLeft=30;fontColor=#147EBA;dashed=1;" vertex="1" parent="daIzgXXJox2IT4Dl1WvI-46">
          <mxGeometry x="660" y="100" width="400" height="560" as="geometry" />
        </mxCell>
        <mxCell id="daIzgXXJox2IT4Dl1WvI-228" value="" style="sketch=0;points=[[0,0,0],[0.25,0,0],[0.5,0,0],[0.75,0,0],[1,0,0],[0,1,0],[0.25,1,0],[0.5,1,0],[0.75,1,0],[1,1,0],[0,0.25,0],[0,0.5,0],[0,0.75,0],[1,0.25,0],[1,0.5,0],[1,0.75,0]];outlineConnect=0;fontColor=#232F3E;fillColor=#C925D1;strokeColor=#ffffff;dashed=0;verticalLabelPosition=bottom;verticalAlign=top;align=center;html=1;fontSize=12;fontStyle=0;aspect=fixed;shape=mxgraph.aws4.resourceIcon;resIcon=mxgraph.aws4.database;" vertex="1" parent="daIzgXXJox2IT4Dl1WvI-277">
          <mxGeometry x="140" y="498.5" width="74" height="74" as="geometry" />
        </mxCell>
        <UserObject label="Read Replica" treeRoot="1" id="daIzgXXJox2IT4Dl1WvI-263">
          <mxCell style="whiteSpace=wrap;html=1;align=center;treeFolding=1;treeMoving=1;newEdgeStyle={&quot;edgeStyle&quot;:&quot;elbowEdgeStyle&quot;,&quot;startArrow&quot;:&quot;none&quot;,&quot;endArrow&quot;:&quot;none&quot;};" vertex="1" collapsed="1" parent="daIzgXXJox2IT4Dl1WvI-277">
            <mxGeometry x="147" y="547.5" width="90" height="25" as="geometry" />
          </mxCell>
        </UserObject>
        <mxCell id="daIzgXXJox2IT4Dl1WvI-279" value="" style="edgeStyle=elbowEdgeStyle;elbow=vertical;endArrow=classic;html=1;curved=0;rounded=0;endSize=8;startSize=8;exitX=0.5;exitY=1;exitDx=0;exitDy=0;entryX=0;entryY=0;entryDx=0;entryDy=0;" edge="1" parent="daIzgXXJox2IT4Dl1WvI-46" source="daIzgXXJox2IT4Dl1WvI-200" target="daIzgXXJox2IT4Dl1WvI-199">
          <mxGeometry width="50" height="50" relative="1" as="geometry">
            <mxPoint x="425.5" y="150" as="sourcePoint" />
            <mxPoint x="584.5" y="150" as="targetPoint" />
          </mxGeometry>
        </mxCell>
        <mxCell id="daIzgXXJox2IT4Dl1WvI-280" value="" style="edgeStyle=elbowEdgeStyle;elbow=vertical;endArrow=classic;html=1;curved=0;rounded=0;endSize=8;startSize=8;exitX=0.6;exitY=0.975;exitDx=0;exitDy=0;exitPerimeter=0;entryX=0.5;entryY=0;entryDx=0;entryDy=0;" edge="1" parent="daIzgXXJox2IT4Dl1WvI-46" source="daIzgXXJox2IT4Dl1WvI-249" target="daIzgXXJox2IT4Dl1WvI-272">
          <mxGeometry width="50" height="50" relative="1" as="geometry">
            <mxPoint x="530" y="380" as="sourcePoint" />
            <mxPoint x="510" y="420" as="targetPoint" />
            <Array as="points">
              <mxPoint x="470" y="410" />
            </Array>
          </mxGeometry>
        </mxCell>
        <mxCell id="daIzgXXJox2IT4Dl1WvI-281" value="desktop" style="sketch=0;outlineConnect=0;gradientColor=none;fontColor=#545B64;strokeColor=none;fillColor=#879196;dashed=0;verticalLabelPosition=bottom;verticalAlign=top;align=center;html=1;fontSize=12;fontStyle=0;aspect=fixed;shape=mxgraph.aws4.illustration_desktop;pointerEvents=1" vertex="1" parent="1">
          <mxGeometry x="-210" y="220" width="40" height="36.4" as="geometry" />
        </mxCell>
        <mxCell id="daIzgXXJox2IT4Dl1WvI-283" style="edgeStyle=elbowEdgeStyle;rounded=0;orthogonalLoop=1;jettySize=auto;html=1;entryX=0;entryY=0.5;entryDx=0;entryDy=0;entryPerimeter=0;" edge="1" parent="1" source="daIzgXXJox2IT4Dl1WvI-281" target="daIzgXXJox2IT4Dl1WvI-26">
          <mxGeometry relative="1" as="geometry" />
        </mxCell>
        <mxCell id="daIzgXXJox2IT4Dl1WvI-285" style="edgeStyle=elbowEdgeStyle;rounded=0;orthogonalLoop=1;jettySize=auto;html=1;" edge="1" parent="1" source="daIzgXXJox2IT4Dl1WvI-62" target="daIzgXXJox2IT4Dl1WvI-49">
          <mxGeometry relative="1" as="geometry" />
        </mxCell>
      </root>
    </mxGraphModel>
  </diagram>
</mxfile>
